HIERARCHY
ROOT mixamorig:Hips
{
	OFFSET 0.000000 201.639420 0.000000
	CHANNELS 6 Xposition Yposition Zposition Xrotation Yrotation Zrotation
	JOINT mixamorig:Spine
	{
		OFFSET 0.006200 19.524994 -2.481800
		CHANNELS 3 Xrotation Yrotation Zrotation
		JOINT mixamorig:Spine1
		{
			OFFSET -0.000900 22.835007 -2.825400
			CHANNELS 3 Xrotation Yrotation Zrotation
			JOINT mixamorig:Spine2
			{
				OFFSET -0.020600 26.552490 -3.193300
				CHANNELS 3 Xrotation Yrotation Zrotation
				JOINT mixamorig:Neck
				{
					OFFSET -0.060000 30.701813 1.352200
					CHANNELS 3 Xrotation Yrotation Zrotation
					JOINT mixamorig:Head
					{
						OFFSET -0.087200 22.547607 3.670900
						CHANNELS 3 Xrotation Yrotation Zrotation
						JOINT mixamorig:HeadTop_End
						{
							OFFSET -0.830600 40.355194 7.893500
							CHANNELS 3 Xrotation Yrotation Zrotation
							End Site
							{
								OFFSET 0.000000 30.592346 0.000000
							}
						}
						JOINT mixamorig:RightEye
						{
							OFFSET -6.302100 18.118591 16.197100
							CHANNELS 3 Xrotation Yrotation Zrotation
							End Site
							{
								OFFSET 0.000000 30.592346 0.000000
							}
						}
						JOINT mixamorig:LeftEye
						{
							OFFSET 6.741500 18.382690 16.401899
							CHANNELS 3 Xrotation Yrotation Zrotation
							End Site
							{
								OFFSET 0.000000 30.592346 0.000000
							}
						}
					}
				}
				JOINT mixamorig:LeftShoulder
				{
					OFFSET 11.924900 18.230499 1.425400
					CHANNELS 3 Xrotation Yrotation Zrotation
					JOINT mixamorig:LeftArm
					{
						OFFSET 25.435989 -0.697632 -5.229300
						CHANNELS 3 Xrotation Yrotation Zrotation
						JOINT mixamorig:LeftForeArm
						{
							OFFSET 54.684776 0.000000 0.000000
							CHANNELS 3 Xrotation Yrotation Zrotation
							JOINT mixamorig:LeftHand
							{
								OFFSET 55.098175 0.000000 0.000000
								CHANNELS 3 Xrotation Yrotation Zrotation
								JOINT mixamorig:LeftHandMiddle1
								{
									OFFSET 23.369751 0.000000 0.000000
									CHANNELS 3 Xrotation Yrotation Zrotation
									JOINT mixamorig:LeftHandMiddle2
									{
										OFFSET 6.378677 0.000000 0.000000
										CHANNELS 3 Xrotation Yrotation Zrotation
										JOINT mixamorig:LeftHandMiddle3
										{
											OFFSET 6.148331 0.000000 0.000000
											CHANNELS 3 Xrotation Yrotation Zrotation
											JOINT mixamorig:LeftHandMiddle4
											{
												OFFSET 6.582504 0.000000 0.000000
												CHANNELS 3 Xrotation Yrotation Zrotation
												End Site
												{
													OFFSET -1.168900 6.395691 1.028606
												}
											}
										}
									}
								}
								JOINT mixamorig:LeftHandThumb1
								{
									OFFSET 7.235672 -3.848206 5.434273
									CHANNELS 3 Xrotation Yrotation Zrotation
									JOINT mixamorig:LeftHandThumb2
									{
										OFFSET 6.568451 -3.792297 3.792300
										CHANNELS 3 Xrotation Yrotation Zrotation
										JOINT mixamorig:LeftHandThumb3
										{
											OFFSET 6.063080 -3.500519 3.500518
											CHANNELS 3 Xrotation Yrotation Zrotation
											JOINT mixamorig:LeftHandThumb4
											{
												OFFSET 4.793182 -2.767334 2.767349
												CHANNELS 3 Xrotation Yrotation Zrotation
												End Site
												{
													OFFSET 0.101639 6.054260 1.275483
												}
											}
										}
									}
								}
								JOINT mixamorig:LeftHandIndex1
								{
									OFFSET 23.101074 -0.309540 4.992809
									CHANNELS 3 Xrotation Yrotation Zrotation
									JOINT mixamorig:LeftHandIndex2
									{
										OFFSET 6.226883 0.000000 0.000000
										CHANNELS 3 Xrotation Yrotation Zrotation
										JOINT mixamorig:LeftHandIndex3
										{
											OFFSET 6.094330 0.000000 0.000000
											CHANNELS 3 Xrotation Yrotation Zrotation
											JOINT mixamorig:LeftHandIndex4
											{
												OFFSET 5.482605 0.000000 0.000000
												CHANNELS 3 Xrotation Yrotation Zrotation
												End Site
												{
													OFFSET -1.427902 5.233032 0.797164
												}
											}
										}
									}
								}
								JOINT mixamorig:LeftHandRing1
								{
									OFFSET 22.299240 0.021149 -3.964172
									CHANNELS 3 Xrotation Yrotation Zrotation
									JOINT mixamorig:LeftHandRing2
									{
										OFFSET 6.321869 0.000000 0.000000
										CHANNELS 3 Xrotation Yrotation Zrotation
										JOINT mixamorig:LeftHandRing3
										{
											OFFSET 5.899796 0.000000 0.000000
											CHANNELS 3 Xrotation Yrotation Zrotation
											JOINT mixamorig:LeftHandRing4
											{
												OFFSET 6.517899 0.000000 0.000000
												CHANNELS 3 Xrotation Yrotation Zrotation
												End Site
												{
													OFFSET -1.637299 6.232208 0.980890
												}
											}
										}
									}
								}
								JOINT mixamorig:LeftHandPinky1
								{
									OFFSET 20.463791 -0.302338 -8.562233
									CHANNELS 3 Xrotation Yrotation Zrotation
									JOINT mixamorig:LeftHandPinky2
									{
										OFFSET 6.908646 0.000000 0.000000
										CHANNELS 3 Xrotation Yrotation Zrotation
										JOINT mixamorig:LeftHandPinky3
										{
											OFFSET 4.622849 0.000000 0.000000
											CHANNELS 3 Xrotation Yrotation Zrotation
											JOINT mixamorig:LeftHandPinky4
											{
												OFFSET 5.216080 0.000000 0.000000
												CHANNELS 3 Xrotation Yrotation Zrotation
												End Site
												{
													OFFSET -0.606308 5.116241 0.814926
												}
											}
										}
									}
								}
							}
						}
					}
				}
				JOINT mixamorig:RightShoulder
				{
					OFFSET -12.001300 18.284088 1.348900
					CHANNELS 3 Xrotation Yrotation Zrotation
					JOINT mixamorig:RightArm
					{
						OFFSET -25.308500 -0.751312 -5.164599
						CHANNELS 3 Xrotation Yrotation Zrotation
						JOINT mixamorig:RightForeArm
						{
							OFFSET -54.684429 0.000000 0.000000
							CHANNELS 3 Xrotation Yrotation Zrotation
							JOINT mixamorig:RightHand
							{
								OFFSET -55.150291 0.000000 0.000000
								CHANNELS 3 Xrotation Yrotation Zrotation
								JOINT mixamorig:RightHandMiddle1
								{
									OFFSET -23.317566 0.000000 0.000000
									CHANNELS 3 Xrotation Yrotation Zrotation
									JOINT mixamorig:RightHandMiddle2
									{
										OFFSET -6.378403 0.000000 0.000000
										CHANNELS 3 Xrotation Yrotation Zrotation
										JOINT mixamorig:RightHandMiddle3
										{
											OFFSET -6.148193 0.000000 0.000000
											CHANNELS 3 Xrotation Yrotation Zrotation
											JOINT mixamorig:RightHandMiddle4
											{
												OFFSET -6.583389 0.000000 0.000000
												CHANNELS 3 Xrotation Yrotation Zrotation
												End Site
												{
													OFFSET 1.171692 6.395905 1.029786
												}
											}
										}
									}
								}
								JOINT mixamorig:RightHandThumb1
								{
									OFFSET -7.190521 -3.860474 5.435846
									CHANNELS 3 Xrotation Yrotation Zrotation
									JOINT mixamorig:RightHandThumb2
									{
										OFFSET -6.567429 -3.791718 3.791708
										CHANNELS 3 Xrotation Yrotation Zrotation
										JOINT mixamorig:RightHandThumb3
										{
											OFFSET -6.062469 -3.500153 3.500166
											CHANNELS 3 Xrotation Yrotation Zrotation
											JOINT mixamorig:RightHandThumb4
											{
												OFFSET -4.792618 -2.767029 2.767022
												CHANNELS 3 Xrotation Yrotation Zrotation
												End Site
												{
													OFFSET -0.100327 6.053253 1.276754
												}
											}
										}
									}
								}
								JOINT mixamorig:RightHandIndex1
								{
									OFFSET -23.048981 -0.310791 4.992554
									CHANNELS 3 Xrotation Yrotation Zrotation
									JOINT mixamorig:RightHandIndex2
									{
										OFFSET -6.227539 0.000000 0.000000
										CHANNELS 3 Xrotation Yrotation Zrotation
										JOINT mixamorig:RightHandIndex3
										{
											OFFSET -6.095047 0.000000 0.000000
											CHANNELS 3 Xrotation Yrotation Zrotation
											JOINT mixamorig:RightHandIndex4
											{
												OFFSET -5.484772 0.000000 0.000000
												CHANNELS 3 Xrotation Yrotation Zrotation
												End Site
												{
													OFFSET 1.420593 5.237305 0.797056
												}
											}
										}
									}
								}
								JOINT mixamorig:RightHandRing1
								{
									OFFSET -22.246323 0.020569 -3.963762
									CHANNELS 3 Xrotation Yrotation Zrotation
									JOINT mixamorig:RightHandRing2
									{
										OFFSET -6.322128 0.000000 0.000000
										CHANNELS 3 Xrotation Yrotation Zrotation
										JOINT mixamorig:RightHandRing3
										{
											OFFSET -5.900024 0.000000 0.000000
											CHANNELS 3 Xrotation Yrotation Zrotation
											JOINT mixamorig:RightHandRing4
											{
												OFFSET -6.518356 0.000000 0.000000
												CHANNELS 3 Xrotation Yrotation Zrotation
												End Site
												{
													OFFSET 1.636398 6.232697 0.982186
												}
											}
										}
									}
								}
								JOINT mixamorig:RightHandPinky1
								{
									OFFSET -20.411011 -0.303314 -8.561701
									CHANNELS 3 Xrotation Yrotation Zrotation
									JOINT mixamorig:RightHandPinky2
									{
										OFFSET -6.907349 0.000000 0.000000
										CHANNELS 3 Xrotation Yrotation Zrotation
										JOINT mixamorig:RightHandPinky3
										{
											OFFSET -4.623840 0.000000 0.000000
											CHANNELS 3 Xrotation Yrotation Zrotation
											JOINT mixamorig:RightHandPinky4
											{
												OFFSET -5.218353 0.000000 0.000000
												CHANNELS 3 Xrotation Yrotation Zrotation
												End Site
												{
													OFFSET 0.602097 5.118835 0.816273
												}
											}
										}
									}
								}
							}
						}
					}
				}
			}
		}
	}
	JOINT mixamorig:LeftUpLeg
	{
		OFFSET 18.168400 -13.561905 -0.039000
		CHANNELS 3 Xrotation Yrotation Zrotation
		JOINT mixamorig:LeftLeg
		{
			OFFSET 0.577358 -80.825211 -3.695000
			CHANNELS 3 Xrotation Yrotation Zrotation
			JOINT mixamorig:LeftFoot
			{
				OFFSET -0.577356 -83.370262 -6.520700
				CHANNELS 3 Xrotation Yrotation Zrotation
				JOINT mixamorig:LeftToeBase
				{
					OFFSET 0.750401 -20.798306 25.135401
					CHANNELS 3 Xrotation Yrotation Zrotation
					JOINT mixamorig:LeftToe_End
					{
						OFFSET -0.000500 0.001200 19.917799
						CHANNELS 3 Xrotation Yrotation Zrotation
						End Site
						{
							OFFSET 0.000000 19.917805 0.000000
						}
					}
				}
			}
		}
	}
	JOINT mixamorig:RightUpLeg
	{
		OFFSET -18.162500 -13.585098 -0.041000
		CHANNELS 3 Xrotation Yrotation Zrotation
		JOINT mixamorig:RightLeg
		{
			OFFSET -0.595024 -80.945297 -3.631900
			CHANNELS 3 Xrotation Yrotation Zrotation
			JOINT mixamorig:RightFoot
			{
				OFFSET 0.595024 -83.218193 -6.561200
				CHANNELS 3 Xrotation Yrotation Zrotation
				JOINT mixamorig:RightToeBase
				{
					OFFSET -0.753601 -20.807106 25.115000
					CHANNELS 3 Xrotation Yrotation Zrotation
					JOINT mixamorig:RightToe_End
					{
						OFFSET 0.000299 0.001700 19.918200
						CHANNELS 3 Xrotation Yrotation Zrotation
						End Site
						{
							OFFSET 0.000000 19.918203 0.000000
						}
					}
				}
			}
		}
	}
}
MOTION
Frames: 4
Frame Time: 0.033333
-5.193274 210.919067 19.354599 88.598892 9.812462 4.963403 2.363042 6.280969 -3.248509 5.204480 12.461951 -7.272588 5.204493 12.461940 -7.272586 -13.925046 -2.201568 -7.202084 1.344867 -28.177990 -3.371373 0.000001 0.000001 -0.000002 0.000001 0.000001 -0.000002 0.000001 0.000001 -0.000002 -0.946212 7.997302 -0.528381 12.506710 -42.387235 10.138824 -24.046075 -115.712612 -11.702777 30.835155 18.189796 66.829556 2.570429 5.008788 -70.794597 -4.738822 1.407484 -40.838002 0.000005 -0.000002 -0.000002 -0.000000 0.000000 0.000001 -37.562943 -0.161647 -33.603373 4.863829 10.107036 4.702262 0.000008 -0.000001 -0.000000 -0.000002 0.000001 -0.000001 7.033634 6.649199 -62.880204 -7.413899 3.402317 -38.731148 -0.000002 0.000014 -0.000006 0.000001 -0.000000 -0.000001 3.260249 8.807719 -64.758943 -0.352731 -0.368450 -62.180587 -0.000002 0.000005 -0.000005 -0.000000 -0.000000 0.000002 7.660208 3.794621 -80.737761 1.270599 -6.501593 -36.494756 -0.000005 -0.000002 0.000004 -0.000001 -0.000002 0.000000 3.795534 21.519199 -8.226358 -77.521868 23.772123 41.544598 -0.003524 24.900836 -0.002817 3.341264 -4.278752 5.208217 -0.498812 -8.183186 -14.955500 -1.575258 0.628117 22.198560 -0.000001 -0.000006 0.000007 -0.000001 0.000003 0.000000 -32.132762 0.517660 23.762020 3.573026 -9.530432 -1.637209 0.000004 0.000038 0.000006 0.000001 -0.000001 -0.000001 3.617735 5.524991 -16.410925 -0.297667 -0.557372 17.207331 -0.000001 0.000008 -0.000004 -0.000000 -0.000002 -0.000002 -6.462994 -22.500106 -6.572333 0.360383 2.865281 22.051378 -0.000001 -0.000004 0.000005 0.000003 -0.000003 -0.000004 9.339107 -23.022172 23.603189 0.136058 5.937704 18.879544 0.000005 0.000002 -0.000003 0.000003 0.000000 0.000003 -16.061892 -14.307020 6.432621 25.378819 7.956983 -0.533352 16.705695 -7.194378 -17.444354 -6.651846 -0.037724 0.077027 -0.000001 0.000000 0.000000 -18.853257 -53.126338 -23.255870 15.918389 -0.315569 0.301270 15.422403 31.522197 19.259131 11.283680 -0.256423 0.499949 0.000000 0.000000 0.000000 
-5.189301 210.909271 19.102676 88.513173 9.989751 4.902869 2.359578 6.303678 -3.228895 5.194861 12.512802 -7.217791 5.194849 12.512792 -7.217782 -14.001808 -2.230694 -7.110237 1.358265 -28.274080 -3.435007 -0.000000 0.000001 -0.000001 -0.000000 0.000001 -0.000001 -0.000000 0.000001 -0.000001 -0.964025 8.078126 -0.554945 12.608455 -42.927640 10.375180 -24.344582 -115.348289 -11.903804 30.786289 17.992016 66.679291 2.449638 5.067141 -70.313683 -4.739528 1.407431 -40.853069 0.000007 0.000001 -0.000002 -0.000001 0.000001 -0.000002 -37.729241 -0.427462 -33.709043 4.789751 9.958057 4.749635 0.000005 -0.000002 -0.000004 0.000002 -0.000002 -0.000001 6.827268 6.618907 -62.500247 -7.405214 3.395392 -38.587075 -0.000002 0.000012 -0.000007 -0.000001 0.000002 -0.000002 3.186974 8.904773 -64.600018 -0.351821 -0.369904 -62.200730 -0.000002 0.000005 -0.000004 -0.000002 0.000000 0.000003 7.508832 3.911838 -80.210408 1.267854 -6.495001 -36.429135 0.000000 -0.000003 -0.000003 -0.000002 -0.000000 -0.000000 3.867170 21.852234 -8.327413 -77.474378 23.722347 41.891883 -0.003241 25.434993 -0.003232 2.872218 -4.250389 5.715986 -0.490865 -8.221570 -15.147724 -1.577621 0.628578 22.239227 -0.000002 -0.000008 0.000005 -0.000003 -0.000004 -0.000003 -31.802225 0.079942 24.296767 3.600847 -9.593102 -1.624655 0.000009 0.000036 0.000010 -0.000003 0.000002 0.000005 3.615515 5.328160 -16.748239 -0.301882 -0.545181 16.963702 0.000003 0.000004 -0.000008 0.000002 -0.000001 -0.000003 -6.333580 -22.357286 -5.890952 0.360576 2.875067 22.140318 -0.000001 -0.000004 0.000004 0.000001 -0.000003 0.000001 9.434936 -23.179929 23.780369 0.135815 5.937100 18.872955 0.000003 0.000000 -0.000004 -0.000001 -0.000000 0.000001 -15.911129 -14.168491 6.753415 25.009841 6.383924 -0.598811 16.307080 -6.620802 -18.623675 -7.039607 -0.038430 0.077815 -0.000001 0.000000 0.000000 -18.840850 -53.289317 -23.266816 16.189410 -0.316850 0.308726 15.296528 31.424379 19.527369 11.236671 -0.256172 0.499678 -0.000003 0.000000 -0.000002 
-5.141612 210.905426 18.859543 88.361843 10.250610 4.791341 2.367967 6.319605 -3.192618 5.208002 12.550094 -7.138664 5.207994 12.550082 -7.138661 -14.121601 -2.230537 -7.050047 1.325345 -28.259804 -3.485890 -0.000001 0.000001 -0.000000 -0.000001 0.000001 -0.000000 -0.000001 0.000001 -0.000000 -0.982275 8.194893 -0.604550 12.668640 -43.656278 10.539478 -24.744942 -114.948655 -12.211120 30.795165 17.785435 66.450111 2.352023 5.118448 -69.873491 -4.737920 1.407545 -40.819519 0.000005 -0.000001 -0.000005 -0.000002 0.000000 -0.000003 -37.841768 -0.599288 -33.789660 4.722123 9.821402 4.792890 0.000010 -0.000004 -0.000002 -0.000001 -0.000000 -0.000001 6.659854 6.582937 -62.233999 -7.395170 3.387380 -38.420835 -0.000002 0.000011 -0.000007 -0.000001 -0.000001 0.000001 3.108790 9.001899 -64.414619 -0.353183 -0.367750 -62.171025 -0.000003 0.000004 -0.000003 0.000001 0.000003 0.000001 7.403841 3.995944 -79.814319 1.265520 -6.489422 -36.373766 -0.000006 -0.000003 0.000003 -0.000002 0.000000 0.000001 3.958434 22.245088 -8.476879 -77.511767 23.634488 42.291179 -0.002822 25.981276 -0.003882 2.526166 -4.244519 6.150541 -0.474471 -8.243826 -15.480731 -1.581767 0.629835 22.300981 0.000003 -0.000004 0.000005 0.000004 -0.000004 -0.000003 -31.560235 -0.111317 24.470679 3.628652 -9.655777 -1.612073 0.000007 0.000036 0.000007 -0.000003 0.000001 0.000001 3.570298 5.118532 -16.947470 -0.290838 -0.540590 16.582458 0.000003 0.000004 -0.000008 -0.000000 -0.000001 -0.000002 -6.266614 -22.343912 -5.400299 0.360739 2.885082 22.231115 0.000000 -0.000007 0.000007 0.000000 -0.000001 0.000001 9.484411 -23.310343 23.851203 0.129598 5.920987 18.752730 0.000003 -0.000001 -0.000005 -0.000003 -0.000002 -0.000003 -15.694533 -14.034694 7.115928 24.577638 4.825988 -0.659446 15.914785 -6.093680 -19.721217 -7.494347 -0.039257 0.078742 -0.000001 0.000000 -0.000000 -18.593076 -53.166828 -23.037537 16.400884 -0.316971 0.312396 14.810107 31.261260 20.132404 11.173932 -0.255820 0.499322 0.000000 0.000000 0.000002 
-5.060739 210.904282 18.661804 88.210527 10.498148 4.650695 2.377721 6.323323 -3.153453 5.222699 12.562180 -7.054670 5.222698 12.562194 -7.054675 -14.274546 -2.204518 -7.029700 1.330206 -28.140017 -3.450533 -0.000000 0.000001 -0.000002 -0.000000 0.000001 -0.000002 -0.000000 0.000001 -0.000002 -0.996725 8.310984 -0.668006 12.619902 -44.321190 10.541337 -25.101739 -114.663522 -12.504336 30.882663 17.623237 66.168523 2.272408 5.154085 -69.549740 -4.734619 1.407767 -40.751651 0.000004 -0.000002 -0.000006 -0.000001 -0.000000 0.000000 -37.946062 -0.769549 -33.852996 4.682431 9.740470 4.818404 0.000007 -0.000003 0.000000 0.000000 0.000001 -0.000001 6.540167 6.547974 -62.079453 -7.381778 3.376846 -38.200845 -0.000002 0.000013 -0.000005 -0.000000 -0.000001 -0.000002 3.024984 9.097828 -64.200076 -0.354031 -0.366448 -62.152597 -0.000002 0.000004 -0.000004 0.000000 0.000002 -0.000001 7.382680 4.035266 -79.604584 1.261762 -6.480484 -36.284707 -0.000005 -0.000002 0.000002 -0.000001 0.000000 -0.000001 4.057996 22.631728 -8.660695 -77.622443 23.582097 42.703910 -0.002456 26.485257 -0.004690 2.507302 -4.231166 6.476351 -0.482443 -8.307647 -15.859725 -1.588203 0.632161 22.389848 0.000003 -0.000004 0.000003 -0.000003 -0.000001 -0.000002 -31.435324 -0.203624 24.558797 3.656472 -9.718480 -1.599480 0.000009 0.000037 0.000008 -0.000004 -0.000000 -0.000001 3.491952 4.915695 -17.005465 -0.298450 -0.526873 16.372085 0.000003 0.000010 -0.000009 0.000002 -0.000003 -0.000000 -6.214020 -22.431745 -4.942329 0.360960 2.896463 22.334370 -0.000000 -0.000002 0.000006 -0.000002 0.000001 0.000000 9.537820 -23.302855 24.041344 0.132345 5.928083 18.802616 0.000000 -0.000001 -0.000005 0.000001 -0.000000 -0.000001 -15.452313 -13.897559 7.476177 24.102947 3.387782 -0.710899 15.515926 -5.589830 -20.709327 -7.962669 -0.040121 0.079679 0.000001 0.000000 0.000001 -18.251276 -52.836475 -22.662540 16.552574 -0.318568 0.314076 14.124973 30.931867 20.821249 11.113477 -0.255479 0.498996 0.000000 -0.000000 0.000000 
